<svg width="24" height="24" viewBox="0 0 24 24" fill="none" xmlns="http://www.w3.org/2000/svg">
<path d="M3 5C2.44772 5 2 5.44772 2 6C2 6.55228 2.44772 7 3 7V5ZM21 7C21.5523 7 22 6.55228 22 6C22 5.44772 21.5523 5 21 5V7ZM3 11C2.44772 11 2 11.4477 2 12C2 12.5523 2.44772 13 3 13V11ZM21 13C21.5523 13 22 12.5523 22 12C22 11.4477 21.5523 11 21 11V13ZM3 17C2.44772 17 2 17.4477 2 18C2 18.5523 2.44772 19 3 19V17ZM21 19C21.5523 19 22 18.5523 22 18C22 17.4477 21.5523 17 21 17V19ZM10 19H21V17H10V19ZM3 19H5.5V17H3V19ZM18.5 13H21V11H18.5V13ZM3 13H14V11H3V13ZM3 7H5.5V5H3V7ZM10 7H21V5H10V7Z" fill="#4C535F"/>
<circle cx="8" cy="18" r="2" stroke="#4C535F" stroke-width="2"/>
<circle cx="16" cy="12" r="2" stroke="#4C535F" stroke-width="2"/>
<circle cx="8" cy="6" r="2" stroke="#4C535F" stroke-width="2"/>
<circle cx="20" cy="4" r="3.5" fill="#DB3936" stroke="white"/>
</svg>
